<svg width="33" height="32" viewBox="0 0 33 32" fill="none" xmlns="http://www.w3.org/2000/svg">
<path d="M20.1204 19.4512L27.8316 24.6404C27.667 24.767 27.493 24.8837 27.3102 24.9892L18.8802 29.8564C17.4077 30.7065 15.5935 30.7065 14.1211 29.8564L5.69105 24.9892C5.51947 24.8902 5.35588 24.7808 5.2002 24.6631L12.9971 19.4512H20.1204Z" fill="url(#paint0_linear_6388_61776)"/>
<path d="M14.121 2.14347C15.5935 1.29332 17.4077 1.29333 18.8801 2.14347L27.3102 7.0103C28.7826 7.86046 29.6895 9.43166 29.6896 11.1319V20.866C29.6896 21.0977 29.6721 21.327 29.6393 21.5524L22.0258 16.4295L18.656 10.1924L18.6155 10.1204C17.7442 8.63256 15.5721 8.62978 14.7052 10.1438L11.1152 16.4135L3.36757 21.5928C3.33075 21.3544 3.31152 21.1115 3.31152 20.866V11.1319C3.31156 9.43166 4.2185 7.86046 5.69096 7.0103L14.121 2.14347Z" fill="url(#paint1_linear_6388_61776)"/>
<defs>
<linearGradient id="paint0_linear_6388_61776" x1="3.31161" y1="16.0008" x2="29.6897" y2="16.0008" gradientUnits="userSpaceOnUse">
<stop stop-color="#35C86E"/>
<stop offset="1" stop-color="#2D80E6"/>
</linearGradient>
<linearGradient id="paint1_linear_6388_61776" x1="3.31152" y1="15.9991" x2="29.6896" y2="15.9991" gradientUnits="userSpaceOnUse">
<stop stop-color="#35C86E"/>
<stop offset="1" stop-color="#2D80E6"/>
</linearGradient>
</defs>
</svg>
