<svg width="177" height="32" viewBox="0 0 177 32" fill="none" xmlns="http://www.w3.org/2000/svg">
<path d="M18.274 19.3867L25.8411 24.4789C25.6795 24.6031 25.5088 24.7177 25.3294 24.8212L17.0571 29.5974C15.6121 30.4316 13.8318 30.4316 12.3869 29.5974L4.11447 24.8212C3.94609 24.724 3.78559 24.6167 3.63281 24.5012L11.2839 19.3867H18.274Z" fill="#3F7CF2"/>
<path d="M12.3886 2.40303C13.8335 1.56878 15.6138 1.56879 17.0588 2.40303L25.3311 7.17886C26.7761 8.01312 27.666 9.55494 27.666 11.2234V20.7754C27.666 21.0028 27.6489 21.2278 27.6167 21.4491L20.1457 16.4219L16.8388 10.3014L16.7991 10.2308C15.9441 8.77077 13.8126 8.76806 12.9619 10.2538L9.43898 16.4062L1.83625 21.4887C1.80012 21.2548 1.78125 21.0164 1.78125 20.7754V11.2234C1.78129 9.55494 2.67126 8.01312 4.11617 7.17886L12.3886 2.40303Z" fill="#3F7CF2"/>
<path d="M51.5847 26.1883L50.043 21.3225H42.8716L41.3015 26.1883H37.0156L44.1022 5.77734H49.1234L56.2101 26.1883H51.5847ZM46.3514 10.0208L43.791 18.0268H49.1376L46.6056 10.0208H46.3514Z" fill="url(#paint0_linear_6670_76230)"/>
<path d="M71.391 10.5859V26.1877H67.4021V23.684H67.1475C66.4119 25.4946 64.955 26.5271 62.5928 26.5271C59.2266 26.5271 57.1328 24.3771 57.1328 20.7561V10.5859H61.2493V19.6952C61.2493 21.8452 62.2253 22.9485 64.1204 22.9485C66.1715 22.9485 67.275 21.6613 67.275 19.582V10.5859H71.391Z" fill="url(#paint1_linear_6670_76230)"/>
<path d="M75.5345 6.88281H79.6509V10.7444H82.89V13.9835H79.6509V20.9993C79.6509 22.3573 80.2731 22.9796 81.6736 22.9796C82.2109 22.9796 82.494 22.9655 82.89 22.923V26.0632C82.3807 26.1622 81.6167 26.2471 80.8247 26.2471C77.034 26.2471 75.5345 25.0165 75.5345 21.9753V13.9835H73.1016V10.7444H75.5345V6.88281Z" fill="url(#paint2_linear_6670_76230)"/>
<path d="M91.9778 26.5268C87.1827 26.5268 84.2969 23.4857 84.2969 18.3793C84.2969 13.3296 87.2249 10.2461 91.9778 10.2461C96.7302 10.2461 99.6582 13.3155 99.6582 18.3793C99.6582 23.4857 96.7729 26.5268 91.9778 26.5268ZM91.9778 23.1603C94.1702 23.1603 95.4289 21.4064 95.4289 18.3793C95.4289 15.3806 94.156 13.6125 91.9778 13.6125C89.7853 13.6125 88.5262 15.3806 88.5262 18.3793C88.5262 21.4205 89.7711 23.1603 91.9778 23.1603Z" fill="url(#paint3_linear_6670_76230)"/>
<path d="M101.859 26.1873V10.5856H105.848V13.0892H106.103C106.824 11.3352 108.409 10.2461 110.714 10.2461C114.18 10.2461 116.047 12.3678 116.047 16.102V26.1873H111.93V17.0781C111.93 14.928 111.011 13.7964 109.059 13.7964C107.15 13.7964 105.976 15.1402 105.976 17.1912V26.1873H101.859Z" fill="url(#paint4_linear_6670_76230)"/>
<path d="M125.813 26.5268C121.018 26.5268 118.133 23.4857 118.133 18.3793C118.133 13.3296 121.061 10.2461 125.813 10.2461C130.566 10.2461 133.494 13.3155 133.494 18.3793C133.494 23.4857 130.608 26.5268 125.813 26.5268ZM125.813 23.1603C128.006 23.1603 129.265 21.4064 129.265 18.3793C129.265 15.3806 127.991 13.6125 125.813 13.6125C123.621 13.6125 122.362 15.3806 122.362 18.3793C122.362 21.4205 123.607 23.1603 125.813 23.1603Z" fill="url(#paint5_linear_6670_76230)"/>
<path d="M135.703 26.1873V10.5856H139.692V13.1316H139.947C140.583 11.3494 142.21 10.2461 144.261 10.2461C146.453 10.2461 147.952 11.3211 148.575 13.1316H148.829C149.551 11.3918 151.347 10.2461 153.525 10.2461C156.637 10.2461 158.575 12.2688 158.575 15.4797V26.1873H154.459V16.5688C154.459 14.7158 153.596 13.7964 151.856 13.7964C150.188 13.7964 149.112 14.9846 149.112 16.6395V26.1873H145.152V16.3991C145.152 14.7441 144.19 13.7964 142.577 13.7964C140.965 13.7964 139.819 15.0553 139.819 16.7951V26.1873H135.703Z" fill="url(#paint6_linear_6670_76230)"/>
<path d="M161.061 15.1685C161.061 12.2122 163.664 10.2461 167.554 10.2461C171.514 10.2461 173.849 11.901 174.075 14.8856H170.27C170.057 13.8813 169.11 13.2589 167.582 13.2589C166.111 13.2589 165.022 13.9237 165.022 14.9139C165.022 15.6777 165.687 16.1444 167.129 16.4698L170.057 17.1063C173.085 17.7711 174.442 19.0441 174.442 21.378C174.442 24.4899 171.656 26.5268 167.568 26.5268C163.452 26.5268 160.962 24.8435 160.68 21.8449H164.697C165.008 22.9057 166.012 23.5139 167.653 23.5139C169.251 23.5139 170.355 22.8491 170.355 21.8449C170.355 21.081 169.761 20.6142 168.389 20.3172L165.56 19.6807C162.533 19.0159 161.061 17.5731 161.061 15.1685Z" fill="url(#paint7_linear_6670_76230)"/>
<defs>
<linearGradient id="paint0_linear_6670_76230" x1="35.9972" y1="15.9661" x2="175.997" y2="15.9661" gradientUnits="userSpaceOnUse">
<stop stop-color="#35C86E"/>
<stop offset="1" stop-color="#2D80E6"/>
</linearGradient>
<linearGradient id="paint1_linear_6670_76230" x1="35.9995" y1="15.9655" x2="175.999" y2="15.9655" gradientUnits="userSpaceOnUse">
<stop stop-color="#35C86E"/>
<stop offset="1" stop-color="#2D80E6"/>
</linearGradient>
<linearGradient id="paint2_linear_6670_76230" x1="35.9976" y1="15.9683" x2="175.998" y2="15.9683" gradientUnits="userSpaceOnUse">
<stop stop-color="#35C86E"/>
<stop offset="1" stop-color="#2D80E6"/>
</linearGradient>
<linearGradient id="paint3_linear_6670_76230" x1="36.0031" y1="15.9651" x2="176.003" y2="15.9651" gradientUnits="userSpaceOnUse">
<stop stop-color="#35C86E"/>
<stop offset="1" stop-color="#2D80E6"/>
</linearGradient>
<linearGradient id="paint4_linear_6670_76230" x1="35.9967" y1="15.9651" x2="175.997" y2="15.9651" gradientUnits="userSpaceOnUse">
<stop stop-color="#35C86E"/>
<stop offset="1" stop-color="#2D80E6"/>
</linearGradient>
<linearGradient id="paint5_linear_6670_76230" x1="36.0022" y1="15.9651" x2="176.002" y2="15.9651" gradientUnits="userSpaceOnUse">
<stop stop-color="#35C86E"/>
<stop offset="1" stop-color="#2D80E6"/>
</linearGradient>
<linearGradient id="paint6_linear_6670_76230" x1="36.0036" y1="15.9651" x2="176.004" y2="15.9651" gradientUnits="userSpaceOnUse">
<stop stop-color="#35C86E"/>
<stop offset="1" stop-color="#2D80E6"/>
</linearGradient>
<linearGradient id="paint7_linear_6670_76230" x1="35.9992" y1="15.9651" x2="175.999" y2="15.9651" gradientUnits="userSpaceOnUse">
<stop stop-color="#35C86E"/>
<stop offset="1" stop-color="#2D80E6"/>
</linearGradient>
</defs>
</svg>
